<?xml version="1.0" encoding="utf-8"?>
<!-- Generator: Adobe Illustrator 26.2.1, SVG Export Plug-In . SVG Version: 6.00 Build 0)  -->
<svg version="1.1" id="Group_195" xmlns="http://www.w3.org/2000/svg" xmlns:xlink="http://www.w3.org/1999/xlink" x="0px" y="0px"
	 viewBox="0 0 214.7 67.4" style="enable-background:new 0 0 214.7 67.4;" xml:space="preserve">
<style type="text/css">
	.st0{clip-path:url(#SVGID_00000161633840097057473750000018311522535274848135_);}
	.st1{fill:#FFFFFF;}
	.st2{fill:#95222B;}
</style>
<g>
	<defs>
		<rect id="SVGID_1_" width="214.7" height="67.4"/>
	</defs>
	<clipPath id="SVGID_00000052811028327205828370000011703665733384193686_">
		<use xlink:href="#SVGID_1_"  style="overflow:visible;"/>
	</clipPath>
	<g id="Group_194" style="clip-path:url(#SVGID_00000052811028327205828370000011703665733384193686_);">
		<path id="Path_266" class="st1" d="M146.5,5.6c-3.6-0.1-6.6,2.8-6.6,6.4c0,0,0,0,0,0.1c0,3.7,3,6.6,6.6,6.6h4.3
			c0,2.3-2.2,3.4-3.9,3.4h-29.7h-0.1c-2,0-3.7-1.6-3.8-3.6V5.6h-6c-4.3,0-7.7,3.5-7.7,7.7s3.5,7.7,7.7,7.7c1.1,0,2.2-0.2,3.2-0.7
			c0.7,2.3,2.5,4,4.9,4.4c0.4,0.1,0.9,0.2,1.3,0.2h30.6c3.1,0,6.6-1.6,6.6-6.8V5.6H146.5z M110.3,17.2L110.3,17.2L110.3,17.2
			c-0.9,0.7-1.9,1.1-3,1.1c-2.6,0-4.7-2.2-4.7-4.8c0-0.1,0-0.1,0-0.2c-0.1-2.6,1.9-4.8,4.5-5c0.1,0,0.1,0,0.2,0h3L110.3,17.2z
			 M150.9,15.9h-4.4c-2,0-3.6-1.7-3.6-3.7c0-0.1,0-0.1,0-0.2c-0.1-1.9,1.3-3.6,3.3-3.7c0.1,0,0.2,0,0.3,0h4.4V15.9z"/>
		<rect id="Rectangle_98" x="18.4" y="27.3" class="st1" width="3.1" height="3.1"/>
		<rect id="Rectangle_99" x="64.1" y="27.3" class="st1" width="3.1" height="3.1"/>
		<rect id="Rectangle_100" x="150.8" class="st1" width="3.1" height="3.1"/>
		<path id="Path_267" class="st1" d="M192.5,15c0-1.6,0.5-6.8,6.9-6.8h2.1l2.8-2.7h-5.5c-5.9,0-9.7,3.7-9.7,9.5
			c-0.1,2.4,0.8,4.8,2.5,6.6h-27.5V4l-3.1,3v14.7c0,2.9-1.7,5.4-5.9,5.4v2.7c4,0,7.5-1.8,8.7-5.4H205v-2.7h-6.1
			C193,21.3,192.5,16.6,192.5,15"/>
		<path id="Path_268" class="st1" d="M64.2,7.1v10.4c0,3.7-3.2,4.6-5.1,4.6h-20V5.6h-4.4c-3.7,0-6.6,3-6.6,6.6c0,0,0,0.1,0,2.2l0,0
			v7.7H9.5c-2.8,0-6.4-0.6-6.4-5.6V8.4L0,11.4v5.5c0,7.1,5.3,7.9,9.1,7.9h22.1l0-10.5v0c0-2.1,0-2.1,0-2.2c-0.1-2,1.4-3.7,3.3-3.8
			c0.1,0,0.1,0,0.2,0H36l0,0h0v16.5H59c2.3,0,8.3-0.6,8.3-7.8V4L64.2,7.1z"/>
		<rect id="Rectangle_101" x="13.8" y="27.3" class="st1" width="3.1" height="3.1"/>
		<rect id="Rectangle_102" x="198.8" class="st1" width="3.1" height="3.1"/>
		<path id="Path_269" class="st1" d="M83.5,6l-2.4,2.4c4.7,0.9,5.4,5.3,5.4,6.8c0.1,3.7-2.8,6.9-6.6,7c-0.2,0-0.5,0-0.7,0h-6.3v2.8
			h6.9c5.9,0,9.7-3.8,9.7-9.7C89.5,10.6,87.2,7.3,83.5,6"/>
		<path id="Path_270" class="st2" d="M75.7,8.4h2.8l2.8-2.8h-8.3v8.3l2.8-2.8L75.7,8.4z"/>
		<rect id="Rectangle_103" x="110.3" class="st1" width="3.1" height="3.1"/>
		<rect id="Rectangle_104" x="105.6" class="st1" width="3.1" height="3.1"/>
		<path id="Path_271" class="st2" d="M155.3,52.9c0.1,1.2-0.2,2.3-0.9,3.3c-0.8,1-2.1,1.6-3.4,1.5c-1.3,0.1-2.6-0.5-3.3-1.5
			c-1.2-2-1.2-4.5,0-6.5c0.8-1,2-1.6,3.3-1.5c1.3-0.1,2.6,0.5,3.4,1.5C155,50.6,155.4,51.8,155.3,52.9 M150.7,45.3
			c0,0.6-0.5,1.1-1.1,1.1c-0.6,0-1.1-0.5-1.1-1.1c0-0.6,0.5-1.1,1.1-1.1C150.2,44.2,150.7,44.7,150.7,45.3 M153.4,52.9
			c0-2-0.8-3.1-2.3-3.1c-1.5,0-2.3,1-2.3,3.1c0,2.1,0.8,3.1,2.3,3.1C152.6,56,153.4,55,153.4,52.9 M153.5,45.3
			c0,0.6-0.5,1.1-1.1,1.1c-0.6,0-1.1-0.5-1.1-1.1s0.5-1.1,1.1-1.1C153,44.2,153.5,44.7,153.5,45.3"/>
		<path id="Path_272" class="st2" d="M163.4,57.1c0.1,1.2-0.4,2.5-1.3,3.4c-0.9,0.9-2.2,1.3-3.4,1.3c-0.8,0-1.6-0.2-2.2-0.6l-0.9-2
			c1,0.5,2.1,0.8,3.2,0.8c1.4,0.1,2.6-1,2.7-2.4c0-0.1,0-0.3,0-0.4v-8.9h2L163.4,57.1z"/>
		<path id="Path_273" class="st2" d="M170.2,57.7H168c-1.4,0.1-2.6-0.9-2.8-2.3c0-0.1,0-0.3,0-0.4V44.2h2v10.7
			c-0.1,0.5,0.3,0.9,0.8,1c0.1,0,0.2,0,0.3,0h2L170.2,57.7z"/>
		<path id="Path_274" class="st2" d="M183.7,57.7h-14V56h9.4v-0.8c0.1-1.2-0.1-2.3-0.4-3.4c-0.4-1.1-1.5-1.9-2.8-1.8
			c-1.2,0.1-2.4,0.6-3.2,1.6l-1.4-1.3c1.2-1.3,2.9-2,4.6-2c1.8-0.2,3.5,0.7,4.4,2.3c0.6,1.5,0.9,3.1,0.8,4.7v0.7h2.6L183.7,57.7z
			 M176.9,60.6c0,0.6-0.5,1.1-1.1,1.1c-0.6,0-1.1-0.5-1.1-1.1c0,0,0,0,0,0c0-0.6,0.5-1.1,1.1-1.1C176.4,59.5,176.9,60,176.9,60.6"/>
		<path id="Path_275" class="st2" d="M191.8,57.7h-1.3c-1.1,0.1-2.1-0.3-2.9-1.1c-0.8,0.8-1.9,1.2-3,1.1h-1.5V56h1.4
			c1,0.1,2-0.6,2.1-1.6c0-0.2,0-0.4,0-0.5v-5.6h2v5.6c-0.1,1,0.6,1.9,1.6,2.1c0.2,0,0.3,0,0.5,0h1.1L191.8,57.7z M187.2,45.3
			c0,0.6-0.5,1.1-1.1,1.1c-0.6,0-1.1-0.5-1.1-1.1c0,0,0,0,0,0c0-0.6,0.5-1.1,1-1.1c0,0,0,0,0,0C186.7,44.3,187.2,44.7,187.2,45.3
			 M190,45.3c0,0.6-0.5,1.1-1.1,1.1c-0.6,0-1.1-0.5-1.1-1.1s0.5-1.1,1.1-1.1C189.5,44.2,190,44.7,190,45.3L190,45.3"/>
		<path id="Path_276" class="st2" d="M200.2,57.7h-1.4c-1.1,0-2.1-0.4-2.9-1.1c-0.8,0.8-1.8,1.2-2.9,1.1h-1.7v-1.8h1.6
			c1,0.1,1.9-0.6,2.1-1.6c0-0.2,0-0.4,0-0.5v-9.6h2v9.7c-0.1,1,0.6,1.9,1.5,2c0.2,0,0.3,0,0.5,0h1.3L200.2,57.7z"/>
		<path id="Path_277" class="st2" d="M205,54c0,1-0.4,2-1.1,2.7c-0.8,0.7-1.8,1.1-2.9,1h-1.3v-1.8h1.2c1.4,0,2-0.7,2-2.1v-9.6h2
			L205,54z"/>
		<path id="Path_278" class="st2" d="M209.1,61.9h2.8l2.8-2.8h-8.3v8.3l2.8-2.8V61.9z"/>
		<path id="Path_279" class="st2" d="M142.6,40h-2.8l-2.8,2.8h8.3v-8.3l-2.8,2.8V40z"/>
	</g>
</g>
</svg>
