<?xml version="1.0" encoding="utf-8"?>
<!-- Generator: Adobe Illustrator 27.0.0, SVG Export Plug-In . SVG Version: 6.00 Build 0)  -->
<svg version="1.1" id="Layer_1" xmlns="http://www.w3.org/2000/svg" xmlns:xlink="http://www.w3.org/1999/xlink" x="0px" y="0px"
	 viewBox="0 0 171.7 43.5" style="enable-background:new 0 0 171.7 43.5;" xml:space="preserve">
<style type="text/css">
	.st0{fill:#002B52;}
	.st1{fill:#007CD8;}
	.st2{display:none;fill:#007CD8;}
</style>
<g>
	<path id="Path_29" class="st0" d="M63.6,0v17.5h-2.6V2.6L63.6,0z"/>
	<path id="Path_30" class="st0" d="M130.9,1.3v16.2h-2.6v-13l-4,13h-2.8l-4-13.1v13.1h-2.6V1.3h3.8l4.2,13.5l4.2-13.5H130.9z"/>
	<path id="Path_31" class="st0" d="M97.7,0v17.5h-2.6v-7.2h-6.7v7.2h-2.6V1.3h2.6V8h6.7V2.6L97.7,0z"/>
	<path id="Path_32" class="st0" d="M150.5,15.2h7.2v2.3H148V1.3h10.2l-2.3,2.3h-5.3v4.3h6.4v2.3h-6.4L150.5,15.2z"/>
	<path id="Path_33" class="st0" d="M57,17.5h2.7L53.8,1.3H51l-5.9,16.2h2.7l1.3-4h6.5L57,17.5z M49.9,11.1l2.5-7.5l2.5,7.5H49.9z"/>
	<path id="Path_34" class="st0" d="M110.9,17.5h2.7l-5.9-16.2h-2.9L99,17.5h2.7l1.3-4h6.5L110.9,17.5z M103.8,11.1l2.5-7.5l2.5,7.5
		H103.8z"/>
	<path id="Path_35" class="st0" d="M29.6,0v10.9c0,3.8-1.6,6.9-6.7,6.9l0,0h0h0l0,0c-5.1,0-6.7-3.1-6.7-6.9V1.3h2.6v9.5
		c0,2.8,1.2,4.6,4.1,4.6c2.9,0,4.1-1.8,4.1-4.6V2.6L29.6,0z"/>
	<path id="Path_36" class="st0" d="M74.2,9.4c0-1.4,0.4-5.8,5.8-5.8h2.4l1.7-2.3h-4.6c-4.9,0-7.9,3.2-7.9,8.1s2.9,8.1,7.9,8.1h4
		v-2.3H80C74.6,15.2,74.2,10.8,74.2,9.4"/>
	<path id="Path_37" class="st0" d="M44.4,12.7c0-1.5-0.7-3-2-3.8c0.8-0.8,1.2-1.9,1.2-3.1c0-2.4-1.9-4.4-4.3-4.5c-0.1,0-0.1,0-0.2,0
		h-6.6v16.2h7C42.3,17.5,44.4,15.3,44.4,12.7 M39.2,3.6c1.1,0,1.9,0.9,1.9,2c0,0.1,0,0.1,0,0.2c0.1,1.1-0.7,2.1-1.8,2.2
		c0,0-0.1,0-0.1,0h-4V3.6L39.2,3.6z M39.6,15.2h-4.4v-4.9h4.4c1.4,0.1,2.4,1.3,2.2,2.7C41.7,14.1,40.8,15.1,39.6,15.2"/>
	<path id="Path_38" class="st0" d="M145.7,12.7c0-1.5-0.7-3-2-3.8c0.8-0.8,1.2-1.9,1.2-3.1c0-2.4-1.9-4.4-4.3-4.5
		c-0.1,0-0.1,0-0.2,0H134v16.2h7C143.6,17.5,145.7,15.3,145.7,12.7 M140.5,3.6c1.1,0,1.9,0.9,1.9,2c0,0.1,0,0.1,0,0.2
		c0.1,1.1-0.7,2.1-1.8,2.2c-0.1,0-0.1,0-0.2,0h-4V3.6L140.5,3.6z M140.9,15.2h-4.4v-4.9h4.4c1.4,0.1,2.4,1.4,2.2,2.7
		C143,14.1,142.1,15.1,140.9,15.2"/>
	<path id="Path_39" class="st0" d="M171.7,17.5l-3.8-7.5c1.9-0.6,3.1-2.3,3.1-4.2c0-2.5-2-4.5-4.5-4.5h0l0,0h-6.5v16.2h2.6v-7.2h2.9
		l3.5,7.2H171.7z M162.5,3.6h4c1.2,0.1,2,1.2,1.9,2.4c-0.1,1-0.9,1.8-1.9,1.9h-4V3.6z"/>
	<g id="Group_17">
		<path id="Path_40" class="st0" d="M8.8,1.7l-2,2c3.1,0.7,5.1,3.8,4.4,7c-0.6,2.7-3.1,4.7-5.9,4.5H0v2.3h5.8c4.9,0,8.1-3.2,8.1-8.1
			C13.9,5.5,12,2.7,8.8,1.7"/>
		<path id="Path_41" class="st1" d="M2.3,3.6h2.3L7,1.3H0v7L2.3,6V3.6z"/>
	</g>
	<g id="Group_18">
		<path id="Path_42" class="st1" d="M122,33.7h4c0.7,0,1.3,0.1,1.9,0.4c0.5,0.2,1,0.6,1.3,1c0.4,0.5,0.6,1,0.8,1.5
			c0.3,1.2,0.3,2.5,0,3.7c-0.2,0.6-0.4,1.1-0.8,1.5c-0.4,0.4-0.8,0.8-1.3,1c-0.6,0.3-1.3,0.4-1.9,0.4h-4V33.7z M123.7,41.9h1.7
			c0.5,0,1.1-0.1,1.6-0.3c0.4-0.2,0.7-0.4,1-0.7c0.2-0.3,0.4-0.7,0.5-1.1c0.2-0.9,0.2-1.8,0-2.7c-0.1-0.4-0.2-0.8-0.5-1.1
			c-0.3-0.3-0.6-0.6-1-0.7c-0.5-0.2-1.1-0.3-1.6-0.3h-1.7V41.9z"/>
		<path id="Path_43" class="st1" d="M131.7,33.7h1.7v9.6h-1.7V33.7z"/>
		<path id="Path_44" class="st1" d="M143.8,43.3h-1.1l-0.3-1.1c-0.4,0.4-0.8,0.8-1.3,1.1c-0.5,0.2-1,0.3-1.5,0.3
			c-0.7,0-1.3-0.1-1.9-0.4c-0.6-0.3-1-0.6-1.4-1.1c-0.4-0.5-0.7-1-0.9-1.6c-0.4-1.3-0.4-2.6,0-3.9c0.2-0.6,0.5-1.1,0.9-1.6
			c0.4-0.5,0.9-0.8,1.4-1.1c0.6-0.3,1.3-0.4,1.9-0.4c0.5,0,1,0.1,1.5,0.2c0.5,0.1,0.9,0.3,1.3,0.6c0.4,0.3,0.7,0.6,0.9,1
			c0.2,0.4,0.4,0.9,0.5,1.4h-1.6c-0.1-0.6-0.4-1.1-0.8-1.4c-0.2-0.2-0.5-0.3-0.8-0.4c-0.3-0.1-0.6-0.1-0.9-0.1
			c-0.5,0-0.9,0.1-1.3,0.3c-0.4,0.2-0.7,0.5-0.9,0.8c-0.2,0.4-0.4,0.8-0.5,1.2c-0.2,0.9-0.2,1.8,0,2.7c0.1,0.4,0.3,0.8,0.5,1.2
			c0.2,0.3,0.5,0.6,0.9,0.8c0.4,0.2,0.9,0.3,1.3,0.3c0.4,0,0.8,0,1.1-0.2c0.3-0.1,0.6-0.3,0.8-0.5c0.2-0.2,0.4-0.5,0.5-0.8
			c0.1-0.4,0.2-0.7,0.2-1.1h-2.6v-1.3h4.1L143.8,43.3z"/>
		<path id="Path_45" class="st1" d="M145.7,33.7h1.7v9.6h-1.7V33.7z"/>
		<path id="Path_46" class="st1" d="M148.5,33.7h7.8v1.5h-3.1v8.1h-1.7v-8.1h-3V33.7z"/>
		<path id="Path_47" class="st1" d="M158.7,33.7h1.8l3.7,9.6h-1.8l-0.9-2.5h-3.8l-0.9,2.5H155L158.7,33.7z M158.1,39.5h2.9l-1.4-4.1
			h0L158.1,39.5z"/>
		<path id="Path_48" class="st1" d="M165.1,33.7h1.7v8.1h4.9v1.5h-6.6V33.7z"/>
	</g>
</g>
<path id="Path_49" class="st2" d="M175.2,46.8h2.3l2.3-2.3h-7v7l2.3-2.3V46.8z"/>
<path id="Path_50" class="st2" d="M118.5,30.2h-2.3l-2.3,2.3h7v-7l-2.3,2.3V30.2z"/>
</svg>
